<?xml version="1.0" encoding="utf-8"?>
<!-- Generator: Adobe Illustrator 24.1.3, SVG Export Plug-In . SVG Version: 6.00 Build 0)  -->
<svg version="1.1" id="Layer_1" xmlns="http://www.w3.org/2000/svg" xmlns:xlink="http://www.w3.org/1999/xlink" x="0px" y="0px"
	 viewBox="0 0 100 100" style="enable-background:new 0 0 100 100;" xml:space="preserve">
<style type="text/css">
	.st0{opacity:0.8;}
	.st1{opacity:0.75;fill:#FFFFFF;}
	.st2{opacity:0.5;fill:#FFFFFF;}
	.st3{opacity:0.25;fill:#FFFFFF;}
</style>
<g id="Layer_2_1_">
</g>
<g class="st0">
	<polygon class="st1" points="48.4,42.5 33.4,42.5 33.4,27.5 26,27.5 26,42.5 11,42.5 11,49.9 26,49.9 26,64.9 33.4,64.9 33.4,49.9 
		48.4,49.9 	"/>
	<polygon class="st2" points="75.2,66.3 63.9,66.3 63.9,54.9 58.2,54.9 58.2,66.3 46.9,66.3 46.9,71.9 58.2,71.9 58.2,83.3 
		63.9,83.3 63.9,71.9 75.2,71.9 	"/>
	<polygon class="st3" points="68.6,23.5 59,23.5 59,13.9 54.2,13.9 54.2,23.5 44.5,23.5 44.5,28.3 54.2,28.3 54.2,38 59,38 59,28.3 
		68.6,28.3 	"/>
</g>
</svg>
